solid Body 2
  facet normal 0.000000e+00 0.000000e+00 9.000000e+02
    outer loop
      vertex 1.500000e+01 1.500000e+01 1.500000e+01
      vertex -1.500000e+01 1.500000e+01 1.500000e+01
      vertex 1.500000e+01 -1.500000e+01 1.500000e+01
    endloop
  endfacet
  facet normal 0.000000e+00 0.000000e+00 9.000000e+02
    outer loop
      vertex 1.500000e+01 -1.500000e+01 1.500000e+01
      vertex -1.500000e+01 1.500000e+01 1.500000e+01
      vertex -1.500000e+01 -1.500000e+01 1.500000e+01
    endloop
  endfacet
  facet normal 0.000000e+00 0.000000e+00 -9.000000e+02
    outer loop
      vertex 1.500000e+01 -1.500000e+01 -1.500000e+01
      vertex -1.500000e+01 -1.500000e+01 -1.500000e+01
      vertex 1.500000e+01 1.500000e+01 -1.500000e+01
    endloop
  endfacet
  facet normal -0.000000e+00 0.000000e+00 -9.000000e+02
    outer loop
      vertex 1.500000e+01 1.500000e+01 -1.500000e+01
      vertex -1.500000e+01 -1.500000e+01 -1.500000e+01
      vertex -1.500000e+01 1.500000e+01 -1.500000e+01
    endloop
  endfacet
  facet normal 0.000000e+00 -9.000000e+02 0.000000e+00
    outer loop
      vertex -1.500000e+01 -1.500000e+01 1.500000e+01
      vertex -1.500000e+01 -1.500000e+01 -1.500000e+01
      vertex 1.500000e+01 -1.500000e+01 1.500000e+01
    endloop
  endfacet
  facet normal 0.000000e+00 -9.000000e+02 -0.000000e+00
    outer loop
      vertex 1.500000e+01 -1.500000e+01 1.500000e+01
      vertex -1.500000e+01 -1.500000e+01 -1.500000e+01
      vertex 1.500000e+01 -1.500000e+01 -1.500000e+01
    endloop
  endfacet
  facet normal -9.000000e+02 -0.000000e+00 -0.000000e+00
    outer loop
      vertex -1.500000e+01 1.500000e+01 1.500000e+01
      vertex -1.500000e+01 1.500000e+01 -1.500000e+01
      vertex -1.500000e+01 -1.500000e+01 1.500000e+01
    endloop
  endfacet
  facet normal -9.000000e+02 -0.000000e+00 -0.000000e+00
    outer loop
      vertex -1.500000e+01 -1.500000e+01 1.500000e+01
      vertex -1.500000e+01 1.500000e+01 -1.500000e+01
      vertex -1.500000e+01 -1.500000e+01 -1.500000e+01
    endloop
  endfacet
  facet normal 0.000000e+00 9.000000e+02 0.000000e+00
    outer loop
      vertex 1.500000e+01 1.500000e+01 1.500000e+01
      vertex 1.500000e+01 1.500000e+01 -1.500000e+01
      vertex -1.500000e+01 1.500000e+01 1.500000e+01
    endloop
  endfacet
  facet normal 0.000000e+00 9.000000e+02 0.000000e+00
    outer loop
      vertex -1.500000e+01 1.500000e+01 1.500000e+01
      vertex 1.500000e+01 1.500000e+01 -1.500000e+01
      vertex -1.500000e+01 1.500000e+01 -1.500000e+01
    endloop
  endfacet
  facet normal 9.000000e+02 -0.000000e+00 0.000000e+00
    outer loop
      vertex 1.500000e+01 -1.500000e+01 1.500000e+01
      vertex 1.500000e+01 -1.500000e+01 -1.500000e+01
      vertex 1.500000e+01 1.500000e+01 1.500000e+01
    endloop
  endfacet
  facet normal 9.000000e+02 -0.000000e+00 0.000000e+00
    outer loop
      vertex 1.500000e+01 1.500000e+01 1.500000e+01
      vertex 1.500000e+01 -1.500000e+01 -1.500000e+01
      vertex 1.500000e+01 1.500000e+01 -1.500000e+01
    endloop
  endfacet
  facet normal 0.000000e+00 0.000000e+00 -1.000000e+02
    outer loop
      vertex 5.000000e+00 -5.000000e+00 5.000000e+00
      vertex -5.000000e+00 -5.000000e+00 5.000000e+00
      vertex 5.000000e+00 5.000000e+00 5.000000e+00
    endloop
  endfacet
  facet normal -0.000000e+00 0.000000e+00 -1.000000e+02
    outer loop
      vertex 5.000000e+00 5.000000e+00 5.000000e+00
      vertex -5.000000e+00 -5.000000e+00 5.000000e+00
      vertex -5.000000e+00 5.000000e+00 5.000000e+00
    endloop
  endfacet
  facet normal 0.000000e+00 0.000000e+00 1.000000e+02
    outer loop
      vertex 5.000000e+00 5.000000e+00 -5.000000e+00
      vertex -5.000000e+00 5.000000e+00 -5.000000e+00
      vertex 5.000000e+00 -5.000000e+00 -5.000000e+00
    endloop
  endfacet
  facet normal 0.000000e+00 0.000000e+00 1.000000e+02
    outer loop
      vertex 5.000000e+00 -5.000000e+00 -5.000000e+00
      vertex -5.000000e+00 5.000000e+00 -5.000000e+00
      vertex -5.000000e+00 -5.000000e+00 -5.000000e+00
    endloop
  endfacet
  facet normal -0.000000e+00 1.000000e+02 0.000000e+00
    outer loop
      vertex -5.000000e+00 -5.000000e+00 -5.000000e+00
      vertex -5.000000e+00 -5.000000e+00 5.000000e+00
      vertex 5.000000e+00 -5.000000e+00 -5.000000e+00
    endloop
  endfacet
  facet normal 0.000000e+00 1.000000e+02 -0.000000e+00
    outer loop
      vertex 5.000000e+00 -5.000000e+00 -5.000000e+00
      vertex -5.000000e+00 -5.000000e+00 5.000000e+00
      vertex 5.000000e+00 -5.000000e+00 5.000000e+00
    endloop
  endfacet
  facet normal 1.000000e+02 0.000000e+00 -0.000000e+00
    outer loop
      vertex -5.000000e+00 5.000000e+00 -5.000000e+00
      vertex -5.000000e+00 5.000000e+00 5.000000e+00
      vertex -5.000000e+00 -5.000000e+00 -5.000000e+00
    endloop
  endfacet
  facet normal 1.000000e+02 0.000000e+00 -0.000000e+00
    outer loop
      vertex -5.000000e+00 -5.000000e+00 -5.000000e+00
      vertex -5.000000e+00 5.000000e+00 5.000000e+00
      vertex -5.000000e+00 -5.000000e+00 5.000000e+00
    endloop
  endfacet
  facet normal -0.000000e+00 -1.000000e+02 0.000000e+00
    outer loop
      vertex 5.000000e+00 5.000000e+00 -5.000000e+00
      vertex 5.000000e+00 5.000000e+00 5.000000e+00
      vertex -5.000000e+00 5.000000e+00 -5.000000e+00
    endloop
  endfacet
  facet normal 0.000000e+00 -1.000000e+02 0.000000e+00
    outer loop
      vertex -5.000000e+00 5.000000e+00 -5.000000e+00
      vertex 5.000000e+00 5.000000e+00 5.000000e+00
      vertex -5.000000e+00 5.000000e+00 5.000000e+00
    endloop
  endfacet
  facet normal -1.000000e+02 0.000000e+00 0.000000e+00
    outer loop
      vertex 5.000000e+00 -5.000000e+00 -5.000000e+00
      vertex 5.000000e+00 -5.000000e+00 5.000000e+00
      vertex 5.000000e+00 5.000000e+00 -5.000000e+00
    endloop
  endfacet
  facet normal -1.000000e+02 0.000000e+00 0.000000e+00
    outer loop
      vertex 5.000000e+00 5.000000e+00 -5.000000e+00
      vertex 5.000000e+00 -5.000000e+00 5.000000e+00
      vertex 5.000000e+00 5.000000e+00 5.000000e+00
    endloop
  endfacet
endsolid Body 2
solid Body 3
  facet normal 0.000000e+00 0.000000e+00 -1.000000e+02
    outer loop
      vertex 5.000000e+00 -5.000000e+00 5.000000e+00
      vertex -5.000000e+00 -5.000000e+00 5.000000e+00
      vertex 5.000000e+00 5.000000e+00 5.000000e+00
    endloop
  endfacet
  facet normal -0.000000e+00 0.000000e+00 -1.000000e+02
    outer loop
      vertex 5.000000e+00 5.000000e+00 5.000000e+00
      vertex -5.000000e+00 -5.000000e+00 5.000000e+00
      vertex -5.000000e+00 5.000000e+00 5.000000e+00
    endloop
  endfacet
  facet normal 0.000000e+00 0.000000e+00 1.000000e+02
    outer loop
      vertex 5.000000e+00 5.000000e+00 -5.000000e+00
      vertex -5.000000e+00 5.000000e+00 -5.000000e+00
      vertex 5.000000e+00 -5.000000e+00 -5.000000e+00
    endloop
  endfacet
  facet normal 0.000000e+00 0.000000e+00 1.000000e+02
    outer loop
      vertex 5.000000e+00 -5.000000e+00 -5.000000e+00
      vertex -5.000000e+00 5.000000e+00 -5.000000e+00
      vertex -5.000000e+00 -5.000000e+00 -5.000000e+00
    endloop
  endfacet
  facet normal -0.000000e+00 1.000000e+02 0.000000e+00
    outer loop
      vertex -5.000000e+00 -5.000000e+00 -5.000000e+00
      vertex -5.000000e+00 -5.000000e+00 5.000000e+00
      vertex 5.000000e+00 -5.000000e+00 -5.000000e+00
    endloop
  endfacet
  facet normal 0.000000e+00 1.000000e+02 -0.000000e+00
    outer loop
      vertex 5.000000e+00 -5.000000e+00 -5.000000e+00
      vertex -5.000000e+00 -5.000000e+00 5.000000e+00
      vertex 5.000000e+00 -5.000000e+00 5.000000e+00
    endloop
  endfacet
  facet normal 1.000000e+02 0.000000e+00 -0.000000e+00
    outer loop
      vertex -5.000000e+00 5.000000e+00 -5.000000e+00
      vertex -5.000000e+00 5.000000e+00 5.000000e+00
      vertex -5.000000e+00 -5.000000e+00 -5.000000e+00
    endloop
  endfacet
  facet normal 1.000000e+02 0.000000e+00 -0.000000e+00
    outer loop
      vertex -5.000000e+00 -5.000000e+00 -5.000000e+00
      vertex -5.000000e+00 5.000000e+00 5.000000e+00
      vertex -5.000000e+00 -5.000000e+00 5.000000e+00
    endloop
  endfacet
  facet normal -0.000000e+00 -1.000000e+02 0.000000e+00
    outer loop
      vertex 5.000000e+00 5.000000e+00 -5.000000e+00
      vertex 5.000000e+00 5.000000e+00 5.000000e+00
      vertex -5.000000e+00 5.000000e+00 -5.000000e+00
    endloop
  endfacet
  facet normal 0.000000e+00 -1.000000e+02 0.000000e+00
    outer loop
      vertex -5.000000e+00 5.000000e+00 -5.000000e+00
      vertex 5.000000e+00 5.000000e+00 5.000000e+00
      vertex -5.000000e+00 5.000000e+00 5.000000e+00
    endloop
  endfacet
  facet normal -1.000000e+02 0.000000e+00 0.000000e+00
    outer loop
      vertex 5.000000e+00 -5.000000e+00 -5.000000e+00
      vertex 5.000000e+00 -5.000000e+00 5.000000e+00
      vertex 5.000000e+00 5.000000e+00 -5.000000e+00
    endloop
  endfacet
  facet normal -1.000000e+02 0.000000e+00 0.000000e+00
    outer loop
      vertex 5.000000e+00 5.000000e+00 -5.000000e+00
      vertex 5.000000e+00 -5.000000e+00 5.000000e+00
      vertex 5.000000e+00 5.000000e+00 5.000000e+00
    endloop
  endfacet
endsolid Body 3
solid Body 5
  facet normal 0.000000e+00 0.000000e+00 1.225000e+03
    outer loop
      vertex 1.750000e+01 1.750000e+01 1.750000e+01
      vertex -1.750000e+01 1.750000e+01 1.750000e+01
      vertex 1.750000e+01 -1.750000e+01 1.750000e+01
    endloop
  endfacet
  facet normal 0.000000e+00 0.000000e+00 1.225000e+03
    outer loop
      vertex 1.750000e+01 -1.750000e+01 1.750000e+01
      vertex -1.750000e+01 1.750000e+01 1.750000e+01
      vertex -1.750000e+01 -1.750000e+01 1.750000e+01
    endloop
  endfacet
  facet normal 0.000000e+00 0.000000e+00 -1.225000e+03
    outer loop
      vertex 1.750000e+01 -1.750000e+01 -1.750000e+01
      vertex -1.750000e+01 -1.750000e+01 -1.750000e+01
      vertex 1.750000e+01 1.750000e+01 -1.750000e+01
    endloop
  endfacet
  facet normal -0.000000e+00 0.000000e+00 -1.225000e+03
    outer loop
      vertex 1.750000e+01 1.750000e+01 -1.750000e+01
      vertex -1.750000e+01 -1.750000e+01 -1.750000e+01
      vertex -1.750000e+01 1.750000e+01 -1.750000e+01
    endloop
  endfacet
  facet normal 0.000000e+00 -1.225000e+03 0.000000e+00
    outer loop
      vertex -1.750000e+01 -1.750000e+01 1.750000e+01
      vertex -1.750000e+01 -1.750000e+01 -1.750000e+01
      vertex 1.750000e+01 -1.750000e+01 1.750000e+01
    endloop
  endfacet
  facet normal 0.000000e+00 -1.225000e+03 -0.000000e+00
    outer loop
      vertex 1.750000e+01 -1.750000e+01 1.750000e+01
      vertex -1.750000e+01 -1.750000e+01 -1.750000e+01
      vertex 1.750000e+01 -1.750000e+01 -1.750000e+01
    endloop
  endfacet
  facet normal -1.225000e+03 -0.000000e+00 -0.000000e+00
    outer loop
      vertex -1.750000e+01 1.750000e+01 1.750000e+01
      vertex -1.750000e+01 1.750000e+01 -1.750000e+01
      vertex -1.750000e+01 -1.750000e+01 1.750000e+01
    endloop
  endfacet
  facet normal -1.225000e+03 -0.000000e+00 -0.000000e+00
    outer loop
      vertex -1.750000e+01 -1.750000e+01 1.750000e+01
      vertex -1.750000e+01 1.750000e+01 -1.750000e+01
      vertex -1.750000e+01 -1.750000e+01 -1.750000e+01
    endloop
  endfacet
  facet normal 0.000000e+00 1.225000e+03 0.000000e+00
    outer loop
      vertex 1.750000e+01 1.750000e+01 1.750000e+01
      vertex 1.750000e+01 1.750000e+01 -1.750000e+01
      vertex -1.750000e+01 1.750000e+01 1.750000e+01
    endloop
  endfacet
  facet normal 0.000000e+00 1.225000e+03 0.000000e+00
    outer loop
      vertex -1.750000e+01 1.750000e+01 1.750000e+01
      vertex 1.750000e+01 1.750000e+01 -1.750000e+01
      vertex -1.750000e+01 1.750000e+01 -1.750000e+01
    endloop
  endfacet
  facet normal 1.225000e+03 -0.000000e+00 0.000000e+00
    outer loop
      vertex 1.750000e+01 -1.750000e+01 1.750000e+01
      vertex 1.750000e+01 -1.750000e+01 -1.750000e+01
      vertex 1.750000e+01 1.750000e+01 1.750000e+01
    endloop
  endfacet
  facet normal 1.225000e+03 -0.000000e+00 0.000000e+00
    outer loop
      vertex 1.750000e+01 1.750000e+01 1.750000e+01
      vertex 1.750000e+01 -1.750000e+01 -1.750000e+01
      vertex 1.750000e+01 1.750000e+01 -1.750000e+01
    endloop
  endfacet
  facet normal 0.000000e+00 0.000000e+00 9.000000e+02
    outer loop
      vertex 1.500000e+01 1.500000e+01 1.500000e+01
      vertex -1.500000e+01 1.500000e+01 1.500000e+01
      vertex 1.500000e+01 -1.500000e+01 1.500000e+01
    endloop
  endfacet
  facet normal 0.000000e+00 0.000000e+00 9.000000e+02
    outer loop
      vertex 1.500000e+01 -1.500000e+01 1.500000e+01
      vertex -1.500000e+01 1.500000e+01 1.500000e+01
      vertex -1.500000e+01 -1.500000e+01 1.500000e+01
    endloop
  endfacet
  facet normal 0.000000e+00 0.000000e+00 -9.000000e+02
    outer loop
      vertex 1.500000e+01 -1.500000e+01 -1.500000e+01
      vertex -1.500000e+01 -1.500000e+01 -1.500000e+01
      vertex 1.500000e+01 1.500000e+01 -1.500000e+01
    endloop
  endfacet
  facet normal -0.000000e+00 0.000000e+00 -9.000000e+02
    outer loop
      vertex 1.500000e+01 1.500000e+01 -1.500000e+01
      vertex -1.500000e+01 -1.500000e+01 -1.500000e+01
      vertex -1.500000e+01 1.500000e+01 -1.500000e+01
    endloop
  endfacet
  facet normal 0.000000e+00 -9.000000e+02 0.000000e+00
    outer loop
      vertex -1.500000e+01 -1.500000e+01 1.500000e+01
      vertex -1.500000e+01 -1.500000e+01 -1.500000e+01
      vertex 1.500000e+01 -1.500000e+01 1.500000e+01
    endloop
  endfacet
  facet normal 0.000000e+00 -9.000000e+02 -0.000000e+00
    outer loop
      vertex 1.500000e+01 -1.500000e+01 1.500000e+01
      vertex -1.500000e+01 -1.500000e+01 -1.500000e+01
      vertex 1.500000e+01 -1.500000e+01 -1.500000e+01
    endloop
  endfacet
  facet normal -9.000000e+02 -0.000000e+00 -0.000000e+00
    outer loop
      vertex -1.500000e+01 1.500000e+01 1.500000e+01
      vertex -1.500000e+01 1.500000e+01 -1.500000e+01
      vertex -1.500000e+01 -1.500000e+01 1.500000e+01
    endloop
  endfacet
  facet normal -9.000000e+02 -0.000000e+00 -0.000000e+00
    outer loop
      vertex -1.500000e+01 -1.500000e+01 1.500000e+01
      vertex -1.500000e+01 1.500000e+01 -1.500000e+01
      vertex -1.500000e+01 -1.500000e+01 -1.500000e+01
    endloop
  endfacet
  facet normal 0.000000e+00 9.000000e+02 0.000000e+00
    outer loop
      vertex 1.500000e+01 1.500000e+01 1.500000e+01
      vertex 1.500000e+01 1.500000e+01 -1.500000e+01
      vertex -1.500000e+01 1.500000e+01 1.500000e+01
    endloop
  endfacet
  facet normal 0.000000e+00 9.000000e+02 0.000000e+00
    outer loop
      vertex -1.500000e+01 1.500000e+01 1.500000e+01
      vertex 1.500000e+01 1.500000e+01 -1.500000e+01
      vertex -1.500000e+01 1.500000e+01 -1.500000e+01
    endloop
  endfacet
  facet normal 9.000000e+02 -0.000000e+00 0.000000e+00
    outer loop
      vertex 1.500000e+01 -1.500000e+01 1.500000e+01
      vertex 1.500000e+01 -1.500000e+01 -1.500000e+01
      vertex 1.500000e+01 1.500000e+01 1.500000e+01
    endloop
  endfacet
  facet normal 9.000000e+02 -0.000000e+00 0.000000e+00
    outer loop
      vertex 1.500000e+01 1.500000e+01 1.500000e+01
      vertex 1.500000e+01 -1.500000e+01 -1.500000e+01
      vertex 1.500000e+01 1.500000e+01 -1.500000e+01
    endloop
  endfacet
endsolid Body 5
